<svg width="30" height="31" viewBox="0 0 30 31" fill="none" xmlns="http://www.w3.org/2000/svg">
<path d="M5.625 16.2317C3.55728 16.2317 1.875 14.5499 1.875 12.4817C1.875 10.4135 3.55728 8.73169 5.625 8.73169C7.69272 8.73169 9.375 10.4135 9.375 12.4817C9.375 14.5499 7.69272 16.2317 5.625 16.2317ZM7.28439 16.8597C6.21552 17.2726 5.03448 17.2726 3.96561 16.8597C3.6937 16.7563 3.38425 16.7938 3.14072 16.944C1.76239 17.8165 0.9375 19.2969 0.9375 20.9192V24.6692C0.9375 25.1846 1.35956 25.6067 1.875 25.6067H6.5625V20.9192C6.5625 19.4662 6.94702 18.0508 7.64053 16.813C7.51877 16.7938 7.397 16.813 7.28439 16.8597ZM24.375 16.2317C26.4427 16.2317 28.125 14.5499 28.125 12.4817C28.125 10.4135 26.4427 8.73169 24.375 8.73169C22.3073 8.73169 20.625 10.4135 20.625 12.4817C20.625 14.5499 22.3073 16.2317 24.375 16.2317ZM26.8593 16.944C26.6158 16.7938 26.3063 16.7563 26.0344 16.8597C24.9655 17.2726 23.7845 17.2726 22.7156 16.8597C22.603 16.813 22.4812 16.7938 22.3595 16.813C23.053 18.0508 23.4375 19.4662 23.4375 20.9192V25.6067H28.125C28.6404 25.6067 29.0625 25.1846 29.0625 24.6692V20.9192C29.0625 19.2969 28.2376 17.8165 26.8593 16.944ZM15 14.3567C12.4155 14.3567 10.3125 12.2537 10.3125 9.66919C10.3125 7.08466 12.4155 4.98169 15 4.98169C17.5845 4.98169 19.6875 7.08466 19.6875 9.66919C19.6875 12.2537 17.5845 14.3567 15 14.3567ZM21.5625 20.9192C21.5625 18.8281 20.5595 16.8597 18.8718 15.632C18.5907 15.4251 18.2158 15.3976 17.9063 15.5469C17.2783 15.8664 16.6127 16.0632 15.9375 16.1566V20.9192C15.9375 21.4346 15.5154 21.8567 15 21.8567C14.4846 21.8567 14.0625 21.4346 14.0625 20.9192V16.1566C13.3873 16.0632 12.7217 15.8664 12.0937 15.5469C11.7842 15.3976 11.4093 15.4251 11.1282 15.632C9.44046 16.8597 8.4375 18.8281 8.4375 20.9192V25.6067H21.5625V20.9192Z" fill="#A39C98"/>
</svg>
