<svg width="24" height="25" viewBox="0 0 24 25" fill="none" xmlns="http://www.w3.org/2000/svg">
<path d="M4.5 13.0442C2.84583 13.0442 1.5 11.6987 1.5 10.0442C1.5 8.38965 2.84583 7.04419 4.5 7.04419C6.15417 7.04419 7.5 8.38965 7.5 10.0442C7.5 11.6987 6.15417 13.0442 4.5 13.0442ZM5.82751 13.5466C4.97241 13.877 4.02759 13.877 3.17249 13.5466C2.95496 13.4639 2.7074 13.4939 2.51257 13.614C1.40991 14.312 0.75 15.4963 0.75 16.7942V19.7942C0.75 20.2065 1.08765 20.5442 1.5 20.5442H5.25V16.7942C5.25 15.6318 5.55762 14.4995 6.11243 13.5093C6.01501 13.4939 5.9176 13.5093 5.82751 13.5466ZM19.5 13.0442C21.1542 13.0442 22.5 11.6987 22.5 10.0442C22.5 8.38965 21.1542 7.04419 19.5 7.04419C17.8458 7.04419 16.5 8.38965 16.5 10.0442C16.5 11.6987 17.8458 13.0442 19.5 13.0442ZM21.4874 13.614C21.2926 13.4939 21.045 13.4639 20.8275 13.5466C19.9724 13.877 19.0276 13.877 18.1725 13.5466C18.0824 13.5093 17.985 13.4939 17.8876 13.5093C18.4424 14.4995 18.75 15.6318 18.75 16.7942V20.5442H22.5C22.9124 20.5442 23.25 20.2065 23.25 19.7942V16.7942C23.25 15.4963 22.5901 14.312 21.4874 13.614ZM12 11.5442C9.93237 11.5442 8.25 9.86182 8.25 7.79419C8.25 5.72656 9.93237 4.04419 12 4.04419C14.0676 4.04419 15.75 5.72656 15.75 7.79419C15.75 9.86182 14.0676 11.5442 12 11.5442ZM17.25 16.7942C17.25 15.1213 16.4476 13.5466 15.0974 12.5645C14.8726 12.3989 14.5726 12.377 14.3251 12.4963C13.8226 12.752 13.2902 12.9094 12.75 12.9841V16.7942C12.75 17.2065 12.4124 17.5442 12 17.5442C11.5876 17.5442 11.25 17.2065 11.25 16.7942V12.9841C10.7098 12.9094 10.1774 12.752 9.67493 12.4963C9.42737 12.377 9.12744 12.3989 8.90259 12.5645C7.55237 13.5466 6.75 15.1213 6.75 16.7942V20.5442H17.25V16.7942Z" fill="#A39C98"/>
</svg>
