<svg width="30" height="30" viewBox="0 0 30 30" fill="none" xmlns="http://www.w3.org/2000/svg">
<g clip-path="url(#clip0_469_12169)">
<path d="M16.2875 2.33751L2.55 0.250006C1.9125 0.150006 1.2625 0.325006 0.775 0.737506C0.2875 1.16251 0 1.77501 0 2.41251V28.75C0 29.4375 0.5625 30 1.25 30H5.3125V23.4375C5.3125 22.225 6.2875 21.25 7.5 21.25H10.625C11.8375 21.25 12.8125 22.225 12.8125 23.4375V30H18.125V4.50001C18.125 3.42501 17.35 2.51251 16.2875 2.33751V2.33751ZM6.875 18.4375H5C4.4825 18.4375 4.0625 18.0175 4.0625 17.5C4.0625 16.9825 4.4825 16.5625 5 16.5625H6.875C7.3925 16.5625 7.8125 16.9825 7.8125 17.5C7.8125 18.0175 7.3925 18.4375 6.875 18.4375ZM6.875 14.6875H5C4.4825 14.6875 4.0625 14.2675 4.0625 13.75C4.0625 13.2325 4.4825 12.8125 5 12.8125H6.875C7.3925 12.8125 7.8125 13.2325 7.8125 13.75C7.8125 14.2675 7.3925 14.6875 6.875 14.6875ZM6.875 10.9375H5C4.4825 10.9375 4.0625 10.5175 4.0625 10C4.0625 9.48251 4.4825 9.06251 5 9.06251H6.875C7.3925 9.06251 7.8125 9.48251 7.8125 10C7.8125 10.5175 7.3925 10.9375 6.875 10.9375ZM6.875 7.18751H5C4.4825 7.18751 4.0625 6.76751 4.0625 6.25001C4.0625 5.73251 4.4825 5.31251 5 5.31251H6.875C7.3925 5.31251 7.8125 5.73251 7.8125 6.25001C7.8125 6.76751 7.3925 7.18751 6.875 7.18751ZM13.125 18.4375H11.25C10.7325 18.4375 10.3125 18.0175 10.3125 17.5C10.3125 16.9825 10.7325 16.5625 11.25 16.5625H13.125C13.6425 16.5625 14.0625 16.9825 14.0625 17.5C14.0625 18.0175 13.6425 18.4375 13.125 18.4375ZM13.125 14.6875H11.25C10.7325 14.6875 10.3125 14.2675 10.3125 13.75C10.3125 13.2325 10.7325 12.8125 11.25 12.8125H13.125C13.6425 12.8125 14.0625 13.2325 14.0625 13.75C14.0625 14.2675 13.6425 14.6875 13.125 14.6875ZM13.125 10.9375H11.25C10.7325 10.9375 10.3125 10.5175 10.3125 10C10.3125 9.48251 10.7325 9.06251 11.25 9.06251H13.125C13.6425 9.06251 14.0625 9.48251 14.0625 10C14.0625 10.5175 13.6425 10.9375 13.125 10.9375ZM13.125 7.18751H11.25C10.7325 7.18751 10.3125 6.76751 10.3125 6.25001C10.3125 5.73251 10.7325 5.31251 11.25 5.31251H13.125C13.6425 5.31251 14.0625 5.73251 14.0625 6.25001C14.0625 6.76751 13.6425 7.18751 13.125 7.18751Z" fill="#ED702D"/>
<path d="M28.275 13.5525L19.375 11.6888V30H27.8125C29.0188 30 30 29.0188 30 27.8125V15.69C30 14.6575 29.2963 13.7788 28.275 13.5525V13.5525ZM25.3125 26.25H23.4375C22.92 26.25 22.5 25.83 22.5 25.3125C22.5 24.795 22.92 24.375 23.4375 24.375H25.3125C25.83 24.375 26.25 24.795 26.25 25.3125C26.25 25.83 25.83 26.25 25.3125 26.25ZM25.3125 22.5H23.4375C22.92 22.5 22.5 22.08 22.5 21.5625C22.5 21.045 22.92 20.625 23.4375 20.625H25.3125C25.83 20.625 26.25 21.045 26.25 21.5625C26.25 22.08 25.83 22.5 25.3125 22.5ZM25.3125 18.75H23.4375C22.92 18.75 22.5 18.33 22.5 17.8125C22.5 17.295 22.92 16.875 23.4375 16.875H25.3125C25.83 16.875 26.25 17.295 26.25 17.8125C26.25 18.33 25.83 18.75 25.3125 18.75Z" fill="#ED702D"/>
</g>
<defs>
<clipPath id="clip0_469_12169">
<rect width="30" height="30" fill="white"/>
</clipPath>
</defs>
</svg>
