<svg width="24" height="24" viewBox="0 0 24 24" fill="none" xmlns="http://www.w3.org/2000/svg">
<g clip-path="url(#clip0_462_1950)">
<path d="M13.03 1.86998L2.04 0.19998C1.53 0.11998 1.01 0.25998 0.62 0.58998C0.23 0.92998 0 1.41998 0 1.92998V23C0 23.55 0.45 24 1 24H4.25V18.75C4.25 17.78 5.03 17 6 17H8.5C9.47 17 10.25 17.78 10.25 18.75V24H14.5V3.59998C14.5 2.73998 13.88 2.00998 13.03 1.86998ZM5.5 14.75H4C3.586 14.75 3.25 14.414 3.25 14C3.25 13.586 3.586 13.25 4 13.25H5.5C5.914 13.25 6.25 13.586 6.25 14C6.25 14.414 5.914 14.75 5.5 14.75ZM5.5 11.75H4C3.586 11.75 3.25 11.414 3.25 11C3.25 10.586 3.586 10.25 4 10.25H5.5C5.914 10.25 6.25 10.586 6.25 11C6.25 11.414 5.914 11.75 5.5 11.75ZM5.5 8.74998H4C3.586 8.74998 3.25 8.41398 3.25 7.99998C3.25 7.58598 3.586 7.24998 4 7.24998H5.5C5.914 7.24998 6.25 7.58598 6.25 7.99998C6.25 8.41398 5.914 8.74998 5.5 8.74998ZM5.5 5.74998H4C3.586 5.74998 3.25 5.41398 3.25 4.99998C3.25 4.58598 3.586 4.24998 4 4.24998H5.5C5.914 4.24998 6.25 4.58598 6.25 4.99998C6.25 5.41398 5.914 5.74998 5.5 5.74998ZM10.5 14.75H9C8.586 14.75 8.25 14.414 8.25 14C8.25 13.586 8.586 13.25 9 13.25H10.5C10.914 13.25 11.25 13.586 11.25 14C11.25 14.414 10.914 14.75 10.5 14.75ZM10.5 11.75H9C8.586 11.75 8.25 11.414 8.25 11C8.25 10.586 8.586 10.25 9 10.25H10.5C10.914 10.25 11.25 10.586 11.25 11C11.25 11.414 10.914 11.75 10.5 11.75ZM10.5 8.74998H9C8.586 8.74998 8.25 8.41398 8.25 7.99998C8.25 7.58598 8.586 7.24998 9 7.24998H10.5C10.914 7.24998 11.25 7.58598 11.25 7.99998C11.25 8.41398 10.914 8.74998 10.5 8.74998ZM10.5 5.74998H9C8.586 5.74998 8.25 5.41398 8.25 4.99998C8.25 4.58598 8.586 4.24998 9 4.24998H10.5C10.914 4.24998 11.25 4.58598 11.25 4.99998C11.25 5.41398 10.914 5.74998 10.5 5.74998Z" fill="#A39C98"/>
<path d="M22.62 10.8421L15.5 9.35107V24.0001H22.25C23.215 24.0001 24 23.2151 24 22.2501V12.5521C24 11.7261 23.437 11.0231 22.62 10.8421ZM20.25 21.0001H18.75C18.336 21.0001 18 20.6641 18 20.2501C18 19.8361 18.336 19.5001 18.75 19.5001H20.25C20.664 19.5001 21 19.8361 21 20.2501C21 20.6641 20.664 21.0001 20.25 21.0001ZM20.25 18.0001H18.75C18.336 18.0001 18 17.6641 18 17.2501C18 16.8361 18.336 16.5001 18.75 16.5001H20.25C20.664 16.5001 21 16.8361 21 17.2501C21 17.6641 20.664 18.0001 20.25 18.0001ZM20.25 15.0001H18.75C18.336 15.0001 18 14.6641 18 14.2501C18 13.8361 18.336 13.5001 18.75 13.5001H20.25C20.664 13.5001 21 13.8361 21 14.2501C21 14.6641 20.664 15.0001 20.25 15.0001Z" fill="#A39C98"/>
</g>
<defs>
<clipPath id="clip0_462_1950">
<rect width="24" height="24" fill="white"/>
</clipPath>
</defs>
</svg>
