<svg width="24" height="24" viewBox="0 0 24 24" fill="none" xmlns="http://www.w3.org/2000/svg">
<g clip-path="url(#clip0_126_15785)">
<path d="M14.8213 4.03101L1.61616 17.2371C1.54972 17.3037 1.50175 17.3879 1.47891 17.4783L0.0152456 23.3531C-0.0285368 23.53 0.023431 23.718 0.152494 23.8471C0.250147 23.9447 0.383208 23.9988 0.519314 23.9988C0.561002 23.9988 0.603643 23.9937 0.645141 23.9832L6.51997 22.5193C6.61154 22.4965 6.69472 22.4487 6.76116 22.3823L19.9674 9.17715L14.8213 4.03101Z" fill="#ED702D"/>
<path d="M23.239 2.23034L21.7691 0.760398C20.7866 -0.222041 19.0744 -0.221089 18.0931 0.760398L16.2925 2.56099L21.4384 7.70695L23.239 5.90635C23.7298 5.4158 24.0001 4.76287 24.0001 4.06844C24.0001 3.37401 23.7298 2.72109 23.239 2.23034Z" fill="#ED702D"/>
</g>
<defs>
<clipPath id="clip0_126_15785">
<rect width="24" height="24" fill="white"/>
</clipPath>
</defs>
</svg>
