<svg width="24" height="25" viewBox="0 0 24 25" fill="none" xmlns="http://www.w3.org/2000/svg">
<g clip-path="url(#clip0_462_1969)">
<path d="M24 17.1773C24 14.194 21.5729 11.7671 18.5898 11.7671C17.8557 11.7671 17.1555 11.9143 16.5167 12.1804L15.2897 10.0551C15.3109 10.0389 15.3318 10.0226 15.3528 10.0062C15.3821 9.98639 15.4094 9.96368 15.4356 9.93933C16.6406 8.94635 17.41 7.44305 17.41 5.76324C17.41 2.77991 14.9832 0.353027 12 0.353027C9.01685 0.353027 6.58978 2.77991 6.58978 5.76324C6.58978 7.44269 7.35901 8.9458 8.56366 9.93878C8.59021 9.96332 8.61786 9.98657 8.64771 10.0065C8.6684 10.0228 8.68927 10.0389 8.71014 10.0551L7.48315 12.1802C6.8443 11.9143 6.1441 11.7671 5.41003 11.7671C2.42688 11.7671 0 14.194 0 17.1773C0 18.8567 0.769409 20.36 1.97406 21.3532C2.00043 21.3776 2.02789 21.4004 2.05756 21.4204C2.97986 22.1506 4.14496 22.5873 5.41003 22.5873C6.67548 22.5873 7.84076 22.1504 8.76324 21.4199C8.79236 21.4003 8.81946 21.3777 8.84528 21.3538C9.87964 20.5016 10.593 19.2733 10.7745 17.8804H13.2252C13.4068 19.2731 14.12 20.501 15.1538 21.3532C15.1802 21.3776 15.2076 21.4004 15.2369 21.4202C16.1594 22.1506 17.3245 22.5873 18.5898 22.5873C19.8552 22.5873 21.0205 22.1504 21.943 21.4199C21.9719 21.4003 21.9988 21.3777 22.0247 21.3539C23.2302 20.361 24 18.8573 24 17.1773ZM7.99603 5.76324C7.99603 3.55554 9.7923 1.75928 12 1.75928C14.2077 1.75928 16.0038 3.55554 16.0038 5.76324C16.0038 6.70239 15.678 7.56647 15.1346 8.25C14.7938 7.77026 14.3483 7.37714 13.8369 7.09827C14.1103 6.72308 14.2722 6.26184 14.2722 5.76324C14.2722 4.51044 13.2528 3.49109 12 3.49109C10.747 3.49109 9.72784 4.51044 9.72784 5.76324C9.72784 6.26184 9.88971 6.72308 10.1629 7.09808C9.65149 7.37695 9.20599 7.77008 8.86542 8.25C8.32196 7.56647 7.99603 6.70239 7.99603 5.76324ZM9.92688 10.7602C10.5657 11.0262 11.2659 11.1735 12 11.1735C12.7341 11.1735 13.4343 11.0262 14.0731 10.7602L15.2999 12.8853C14.1876 13.7402 13.4152 15.0168 13.2253 16.4742H10.7747C10.5846 15.0168 9.81244 13.7402 8.69989 12.8853L9.92688 10.7602ZM8.54462 19.6641C8.20404 19.1841 7.75854 18.791 7.24713 18.5121C7.52032 18.1371 7.68219 17.6759 7.68219 17.1773C7.68219 15.9245 6.66302 14.9052 5.41003 14.9052C4.15723 14.9052 3.13788 15.9245 3.13788 17.1773C3.13788 17.6759 3.29974 18.1371 3.57312 18.5121C3.06171 18.791 2.61621 19.1841 2.27545 19.6641C1.73218 18.9803 1.40625 18.1165 1.40625 17.1773C1.40625 14.9694 3.20233 13.1733 5.41003 13.1733C7.61792 13.1733 9.414 14.9694 9.414 17.1773C9.414 18.1165 9.08826 18.9803 8.54462 19.6641ZM14.5858 17.1773C14.5858 14.9694 16.3821 13.1733 18.5898 13.1733C20.7977 13.1733 22.5938 14.9694 22.5938 17.1773C22.5938 18.1165 22.2678 18.9803 21.7244 19.6641C21.3836 19.1841 20.9383 18.791 20.4269 18.5121C20.7001 18.1371 20.8619 17.6759 20.8619 17.1773C20.8619 15.9245 19.8426 14.9052 18.5898 14.9052C17.337 14.9052 16.3176 15.9245 16.3176 17.1773C16.3176 17.6759 16.4795 18.1371 16.7527 18.5121C16.2413 18.791 15.796 19.1841 15.4552 19.6641C14.9117 18.9803 14.5858 18.1165 14.5858 17.1773Z" fill="#ED702D"/>
</g>
<defs>
<clipPath id="clip0_462_1969">
<rect width="24" height="24" fill="white" transform="translate(0 0.353027)"/>
</clipPath>
</defs>
</svg>
