<svg width="30" height="31" viewBox="0 0 30 31" fill="none" xmlns="http://www.w3.org/2000/svg">
<g clip-path="url(#clip0_469_12190)">
<path d="M30 21.3834C30 17.6542 26.9662 14.6206 23.2372 14.6206C22.3196 14.6206 21.4444 14.8046 20.6458 15.1372L19.1121 12.4806C19.1386 12.4604 19.1647 12.44 19.1911 12.4194C19.2277 12.3947 19.2618 12.3663 19.2945 12.3359C20.8008 11.0947 21.7625 9.21556 21.7625 7.1158C21.7625 3.38663 18.7289 0.353027 15 0.353027C11.2711 0.353027 8.23723 3.38663 8.23723 7.1158C8.23723 9.2151 9.19876 11.094 10.7046 12.3352C10.7378 12.3659 10.7723 12.395 10.8096 12.4199C10.8355 12.4403 10.8616 12.4604 10.8877 12.4806L9.35394 15.137C8.55537 14.8046 7.68013 14.6206 6.76254 14.6206C3.0336 14.6206 0 17.6542 0 21.3834C0 23.4827 0.961761 25.3618 2.46758 26.6033C2.50053 26.6337 2.53487 26.6623 2.57195 26.6873C3.72482 27.6 5.1812 28.1459 6.76254 28.1459C8.34435 28.1459 9.80095 27.5998 10.9541 26.6866C10.9904 26.6621 11.0243 26.6339 11.0566 26.6039C12.3495 25.5387 13.2413 24.0034 13.4681 22.2623H16.5314C16.7585 24.0032 17.65 25.538 18.9423 26.6033C18.9752 26.6337 19.0096 26.6623 19.0462 26.687C20.1993 27.6 21.6557 28.1459 23.2372 28.1459C24.819 28.1459 26.2756 27.5998 27.4287 26.6866C27.4649 26.6621 27.4986 26.6339 27.5308 26.6042C29.0378 25.3629 30 23.4834 30 21.3834V21.3834ZM9.99504 7.1158C9.99504 4.35617 12.2404 2.11084 15 2.11084C17.7596 2.11084 20.0047 4.35617 20.0047 7.1158C20.0047 8.28973 19.5975 9.36983 18.9182 10.2242C18.4923 9.62457 17.9354 9.13316 17.2961 8.78458C17.6379 8.3156 17.8402 7.73904 17.8402 7.1158C17.8402 5.54979 16.566 4.2756 15 4.2756C13.4338 4.2756 12.1598 5.54979 12.1598 7.1158C12.1598 7.73904 12.3621 8.3156 12.7036 8.78435C12.0644 9.13293 11.5075 9.62434 11.0818 10.2242C10.4025 9.36983 9.99504 8.28973 9.99504 7.1158V7.1158ZM12.4086 13.362C13.2072 13.6945 14.0824 13.8786 15 13.8786C15.9176 13.8786 16.7928 13.6945 17.5914 13.362L19.1249 16.0184C17.7345 17.087 16.769 18.6828 16.5317 20.5045H13.4683C13.2307 18.6828 12.2655 17.087 10.8749 16.0184L12.4086 13.362ZM10.6808 24.4918C10.2551 23.8919 9.69818 23.4005 9.05891 23.0519C9.40041 22.5832 9.60274 22.0066 9.60274 21.3834C9.60274 19.8174 8.32878 18.5432 6.76254 18.5432C5.19653 18.5432 3.92235 19.8174 3.92235 21.3834C3.92235 22.0066 4.12468 22.5832 4.4664 23.0519C3.82713 23.4005 3.27026 23.8919 2.84431 24.4918C2.16522 23.6372 1.75781 22.5573 1.75781 21.3834C1.75781 18.6235 4.00291 16.3784 6.76254 16.3784C9.5224 16.3784 11.7675 18.6235 11.7675 21.3834C11.7675 22.5573 11.3603 23.6372 10.6808 24.4918V24.4918ZM18.2323 21.3834C18.2323 18.6235 20.4776 16.3784 23.2372 16.3784C25.9971 16.3784 28.2422 18.6235 28.2422 21.3834C28.2422 22.5573 27.8348 23.6372 27.1555 24.4918C26.7295 23.8919 26.1729 23.4005 25.5336 23.0519C25.8751 22.5832 26.0774 22.0066 26.0774 21.3834C26.0774 19.8174 24.8032 18.5432 23.2372 18.5432C21.6712 18.5432 20.397 19.8174 20.397 21.3834C20.397 22.0066 20.5994 22.5832 20.9409 23.0519C20.3016 23.4005 19.7449 23.8919 19.319 24.4918C18.6397 23.6372 18.2323 22.5573 18.2323 21.3834V21.3834Z" fill="#A39C98"/>
</g>
<defs>
<clipPath id="clip0_469_12190">
<rect width="30" height="30" fill="white" transform="translate(0 0.353027)"/>
</clipPath>
</defs>
</svg>
