<svg width="24" height="24" viewBox="0 0 24 24" fill="none" xmlns="http://www.w3.org/2000/svg">
<path d="M12 12.75C15.3137 12.75 18 10.0637 18 6.75C18 3.43629 15.3137 0.75 12 0.75C8.68629 0.75 6 3.43629 6 6.75C6 10.0637 8.68629 12.75 12 12.75Z" fill="#ED702D"/>
<path d="M3.75 23.25H13.02C11.7031 22.1945 10.831 20.6825 10.5767 19.014C10.3225 17.3455 10.7047 15.6424 11.6475 14.2425C9.70858 14.1462 7.88164 13.3053 6.5475 11.895C5.05193 12.5264 3.77555 13.5844 2.87784 14.937C1.98013 16.2895 1.50089 17.8767 1.5 19.5V21C1.50178 21.5962 1.73941 22.1675 2.16098 22.589C2.58255 23.0106 3.15381 23.2482 3.75 23.25Z" fill="#ED702D"/>
<path d="M12 18C12 19.0384 12.3079 20.0534 12.8848 20.9167C13.4617 21.7801 14.2816 22.453 15.2409 22.8504C16.2002 23.2477 17.2558 23.3517 18.2742 23.1491C19.2926 22.9466 20.2281 22.4465 20.9623 21.7123C21.6965 20.9781 22.1966 20.0426 22.3991 19.0242C22.6017 18.0058 22.4977 16.9502 22.1004 15.9909C21.703 15.0316 21.0301 14.2117 20.1667 13.6348C19.3034 13.0579 18.2884 12.75 17.25 12.75C15.8581 12.7516 14.5237 13.3052 13.5394 14.2894C12.5552 15.2737 12.0016 16.6081 12 18ZM18 16.5V17.25H18.75C18.9489 17.25 19.1397 17.329 19.2803 17.4697C19.421 17.6103 19.5 17.8011 19.5 18C19.5 18.1989 19.421 18.3897 19.2803 18.5303C19.1397 18.671 18.9489 18.75 18.75 18.75H18V19.5C18 19.6989 17.921 19.8897 17.7803 20.0303C17.6397 20.171 17.4489 20.25 17.25 20.25C17.0511 20.25 16.8603 20.171 16.7197 20.0303C16.579 19.8897 16.5 19.6989 16.5 19.5V18.75H15.75C15.5511 18.75 15.3603 18.671 15.2197 18.5303C15.079 18.3897 15 18.1989 15 18C15 17.8011 15.079 17.6103 15.2197 17.4697C15.3603 17.329 15.5511 17.25 15.75 17.25H16.5V16.5C16.5 16.3011 16.579 16.1103 16.7197 15.9697C16.8603 15.829 17.0511 15.75 17.25 15.75C17.4489 15.75 17.6397 15.829 17.7803 15.9697C17.921 16.1103 18 16.3011 18 16.5Z" fill="#ED702D"/>
</svg>
